<svg width="1510" height="358" viewBox="0 0 1510 358" fill="none" xmlns="http://www.w3.org/2000/svg">
<line x1="43.171" y1="510.1" x2="43.171" y2="-2.90039" stroke="white" stroke-width="0.2"/>
<line x1="86.5938" y1="510.1" x2="86.5938" y2="-2.90039" stroke="white" stroke-width="0.2"/>
<line x1="130.017" y1="510.1" x2="130.017" y2="-2.90039" stroke="white" stroke-width="0.2"/>
<line x1="172.233" y1="510.1" x2="172.233" y2="-2.90039" stroke="white" stroke-width="0.2"/>
<line x1="215.656" y1="510.1" x2="215.656" y2="-2.90039" stroke="white" stroke-width="0.2"/>
<line x1="259.079" y1="510.1" x2="259.079" y2="-2.90039" stroke="white" stroke-width="0.2"/>
<line x1="302.503" y1="510.1" x2="302.503" y2="-2.90039" stroke="white" stroke-width="0.2"/>
<line x1="344.719" y1="510.1" x2="344.719" y2="-2.90039" stroke="white" stroke-width="0.2"/>
<line x1="388.142" y1="510.1" x2="388.142" y2="-2.90039" stroke="white" stroke-width="0.2"/>
<line x1="431.565" y1="510.1" x2="431.565" y2="-2.90039" stroke="white" stroke-width="0.2"/>
<line x1="474.988" y1="510.1" x2="474.988" y2="-2.90039" stroke="white" stroke-width="0.2"/>
<line x1="517.204" y1="510.1" x2="517.204" y2="-2.90039" stroke="white" stroke-width="0.2"/>
<line x1="560.627" y1="510.1" x2="560.627" y2="-2.90039" stroke="white" stroke-width="0.2"/>
<line x1="604.05" y1="510.1" x2="604.05" y2="-2.90039" stroke="white" stroke-width="0.2"/>
<line x1="647.473" y1="510.1" x2="647.473" y2="-2.90039" stroke="white" stroke-width="0.2"/>
<line x1="689.69" y1="510.1" x2="689.69" y2="-2.90039" stroke="white" stroke-width="0.2"/>
<line x1="733.113" y1="510.1" x2="733.113" y2="-2.90039" stroke="white" stroke-width="0.2"/>
<line x1="776.536" y1="510.1" x2="776.536" y2="-2.90039" stroke="white" stroke-width="0.2"/>
<line x1="819.959" y1="510.1" x2="819.959" y2="-2.90039" stroke="white" stroke-width="0.2"/>
<line x1="862.175" y1="510.1" x2="862.175" y2="-2.90039" stroke="white" stroke-width="0.2"/>
<line x1="905.598" y1="510.1" x2="905.598" y2="-2.90039" stroke="white" stroke-width="0.2"/>
<line x1="949.021" y1="510.1" x2="949.021" y2="-2.90039" stroke="white" stroke-width="0.2"/>
<line x1="992.444" y1="510.1" x2="992.444" y2="-2.90039" stroke="white" stroke-width="0.2"/>
<line x1="1034.66" y1="510.1" x2="1034.66" y2="-2.90039" stroke="white" stroke-width="0.2"/>
<line x1="1078.08" y1="510.1" x2="1078.08" y2="-2.90039" stroke="white" stroke-width="0.2"/>
<line x1="1121.51" y1="510.1" x2="1121.51" y2="-2.90039" stroke="white" stroke-width="0.2"/>
<line x1="1164.93" y1="510.1" x2="1164.93" y2="-2.90039" stroke="white" stroke-width="0.2"/>
<line x1="1207.15" y1="510.1" x2="1207.15" y2="-2.90039" stroke="white" stroke-width="0.2"/>
<line x1="1250.57" y1="510.1" x2="1250.57" y2="-2.90039" stroke="white" stroke-width="0.2"/>
<line x1="1293.99" y1="510.1" x2="1293.99" y2="-2.90039" stroke="white" stroke-width="0.2"/>
<line x1="1337.41" y1="510.1" x2="1337.41" y2="-2.90039" stroke="white" stroke-width="0.2"/>
<line x1="1379.63" y1="510.1" x2="1379.63" y2="-2.90039" stroke="white" stroke-width="0.2"/>
<line x1="1423.05" y1="510.1" x2="1423.05" y2="-2.90039" stroke="white" stroke-width="0.2"/>
<line x1="1466.48" y1="510.1" x2="1466.48" y2="-2.90039" stroke="white" stroke-width="0.2"/>
<line x1="1509.9" y1="510.1" x2="1509.9" y2="-2.90039" stroke="white" stroke-width="0.2"/>
<path d="M-0.151855 29.0996H1509.46" stroke="white" stroke-width="0.2"/>
<path d="M-0.208496 61.2002H1509.41" stroke="white" stroke-width="0.2"/>
<path d="M-0.264648 93.2998H1509.35" stroke="white" stroke-width="0.2"/>
<path d="M-0.321289 125.4H1509.29" stroke="white" stroke-width="0.2"/>
<path d="M-0.37793 157.5H1509.24" stroke="white" stroke-width="0.2"/>
<path d="M-0.43457 189.6H1509.18" stroke="white" stroke-width="0.2"/>
<path d="M-0.491211 221.7H1509.12" stroke="white" stroke-width="0.2"/>
<path d="M-0.547852 253.8H1509.07" stroke="white" stroke-width="0.2"/>
<path d="M-0.604492 285.899H1509.01" stroke="white" stroke-width="0.2"/>
<path d="M-0.660645 318H1508.95" stroke="white" stroke-width="0.2"/>
<path d="M-0.717285 350.1H1508.9" stroke="white" stroke-width="0.2"/>
</svg>
